<svg version="1.1" xmlns="http://www.w3.org/2000/svg" viewBox="-2380.5007899146017 -1837.6060871978468 6031.785723608427 4364.364127507295"><desc>Created with Snap</desc><defs></defs><g><rect x="-2380.5007899146017" y="-1837.6060871978468" width="6031.785723608427" height="4364.364127507295" fill="#00000000" style=""></rect><g transform="matrix(13.9301,0,0,13.9301,-2150.6328,-2441.4488)">
<g id="gSkrmbkmtv2an">
	<g>
		<path d="M387.88501,83.59349V316.4075H12.115V83.59349H387.88501 M391.96945,79.50903H8.03054v240.98294h383.9389V79.50903
			L391.96945,79.50903z" fill="#c7d3d4" style=""></path>
		<path d="M38.30037,67.71037l353.83911,50.25497l-30.43997,214.32426L7.86052,282.03564L38.30037,67.71037 M36.56565,65.4009
			L5.55142,283.77075l357.88281,50.82834l31.01434-218.36884L36.56565,65.4009L36.56565,65.4009z" fill="#c7d3d4" style=""></path>
		<path d="M361.69949,67.71037l30.43997,214.32527L38.30037,332.28961L7.86052,117.96535L361.69949,67.71037 M363.43423,65.4009
			L5.55142,116.23025l31.01422,218.36884l357.88293-50.82834L363.43423,65.4009L363.43423,65.4009z" fill="#c7d3d4" style=""></path>
	</g>
</g>


<desc>Created with Snap</desc><defs></defs></g><g><g transform="matrix(1.024,0,0,-1.024,0,0)"><path d="M78 361Q78 422 131 463Q184 504 275 524Q281 566 309 591Q337 616 359 616Q382 616 395 603Q409 591 409 570Q409 521 340 502Q325 222 325 215Q355 232 395 247Q436 263 453 263Q470 263 470 256Q470 243 458 239Q393 218 324 176Q316 -36 314 -78Q307 -196 262 -258Q217 -320 137 -320Q74 -320 37 -269Q0 -217 0 -155Q0 -67 62 11Q124 90 251 173L272 489Q145 467 145 380Q145 355 134 341Q124 327 108 327Q78 327 78 361ZM151 -284Q219 -284 231 -133Q237 -57 241 18Q246 93 248 125Q207 96 182 75Q157 55 128 24Q73 -38 73 -126Q73 -211 102 -256Q121 -284 151 -284ZM368 582Q346 582 342 537Q378 548 378 566Q378 582 368 582ZM415 87L421 199Q421 306 431 316Q441 326 466 345Q492 365 503 365Q515 365 518 361Q521 357 521 345Q521 302 502 258Q487 166 487 107Q487 48 506 48Q529 48 560 88Q591 128 622 207Q631 307 636 315Q642 323 664 344Q686 365 700 365Q715 365 715 327Q715 317 709 288Q704 259 697 246Q686 218 686 73Q686 46 692 46Q709 47 739 88Q769 130 798 195Q828 260 834 260Q841 260 841 252Q841 224 812 163Q733 -5 679 -5Q640 -5 620 11Q613 18 613 54Q613 90 616 134Q584 66 552 30Q520 -5 480 -5Q441 -5 428 16Q415 37 415 87ZM928 306L930 321Q930 339 909 339Q889 339 870 312Q851 286 851 269Q851 252 853 242Q855 232 857 225Q860 219 866 210Q872 201 875 197L886 183Q893 173 896 170Q948 213 1020 266Q1024 269 1029 269Q1039 269 1039 258Q1039 247 1030 241Q966 200 909 152Q931 120 931 82Q931 44 902 17Q873 -10 828 -10Q783 -10 783 33Q783 64 849 128Q844 134 831 147Q818 161 811 169Q805 177 796 190Q780 215 780 244Q780 303 818 339Q856 376 899 376Q926 376 941 361Q956 347 956 332Q956 298 940 298Q928 298 928 306ZM864 109Q824 69 824 44Q824 20 849 20Q864 20 874 32Q896 62 864 109ZM1212 163Q1133 -5 1078 -5Q1024 -5 1014 8Q1005 21 1005 94Q1005 167 1019 305Q969 315 966 346Q966 362 987 362Q1008 362 1024 354Q1033 426 1045 500Q1048 519 1064 536Q1080 553 1095 553Q1108 553 1108 512Q1108 493 1094 337Q1121 342 1153 357Q1186 372 1192 372Q1210 372 1210 361Q1211 351 1173 333Q1135 316 1091 307Q1079 161 1079 86Q1079 46 1091 46Q1109 47 1139 88Q1169 129 1198 194Q1228 260 1234 260Q1241 260 1241 252Q1241 224 1212 163Z" fill="#ffffff" style=""></path></g></g><g transform="matrix(1,0,0,1,-562.688,1285.1201)"><g transform="matrix(1.024,0,0,-1.024,0,0)"><path d="M78 359L84 295Q84 285 73 279Q63 273 56 273Q42 273 31 295Q21 318 21 337Q21 411 72 462Q124 514 203 540Q203 574 217 604Q232 635 263 635Q276 635 276 598L276 556Q308 560 323 560Q456 560 533 485Q611 411 611 298Q611 220 583 160Q555 100 507 65Q411 -5 277 -5L256 -5Q253 -34 248 -34Q201 -34 185 -21Q178 -14 177 3Q88 28 88 58Q88 68 95 73Q102 79 110 79Q119 79 177 55Q186 317 200 505Q145 486 111 448Q78 410 78 359ZM296 521Q282 521 275 520Q271 345 265 226Q260 71 258 31Q278 28 300 28Q395 28 465 98Q535 169 535 272Q535 375 468 448Q401 521 296 521ZM967 217Q1007 230 1022 239Q1038 249 1046 254L1058 261Q1063 264 1066 264Q1074 264 1074 255Q1074 246 1043 223Q1012 201 966 183Q959 99 913 47Q867 -5 782 -5Q720 -5 687 44Q654 94 654 160Q654 227 693 286Q733 345 795 345Q823 365 861 365Q900 365 933 324Q966 283 967 217ZM902 166L866 164Q820 164 788 191Q756 219 756 252Q756 285 767 309Q724 275 724 175Q724 127 744 83Q764 40 807 40Q850 40 874 76Q898 113 902 166ZM840 332Q824 332 815 317Q806 303 806 286Q806 249 831 226Q857 203 891 203L903 203Q901 252 886 292Q872 332 840 332ZM1096 54L1097 23Q1097 -5 1081 -5Q1057 -5 1035 1Q1013 8 1013 19Q1013 31 1018 98Q1024 166 1024 200L1024 259Q1024 307 1034 317Q1044 327 1069 346Q1095 365 1106 365Q1118 365 1121 361Q1124 357 1124 346Q1124 293 1104 246Q1099 189 1099 167Q1103 173 1141 235Q1179 297 1205 326Q1232 355 1253 355Q1274 355 1290 341Q1307 327 1307 306Q1307 262 1297 176Q1288 91 1288 68Q1288 46 1294 46Q1311 47 1341 88Q1371 130 1400 195Q1430 260 1436 260Q1443 260 1443 252Q1443 224 1414 163Q1335 -5 1281 -5Q1242 -5 1222 11Q1215 18 1215 47Q1215 77 1220 143Q1226 210 1226 243Q1226 276 1214 276Q1203 276 1154 207Q1105 139 1102 120Q1096 85 1096 54ZM1670 -5Q1631 -5 1611 11Q1604 18 1604 46Q1604 75 1606 123Q1580 58 1554 26Q1529 -5 1489 -5Q1449 -5 1419 32Q1389 70 1389 150Q1389 231 1434 293Q1480 355 1554 355Q1586 355 1626 313Q1634 324 1654 339Q1675 355 1689 355Q1704 355 1704 317Q1704 307 1698 278Q1693 249 1686 236Q1677 213 1677 73Q1677 46 1683 46Q1700 47 1730 88Q1760 130 1789 195Q1819 260 1825 260Q1832 260 1832 252Q1832 224 1803 163Q1724 -5 1670 -5ZM1548 315Q1520 315 1488 273Q1457 232 1457 176Q1457 120 1473 84Q1490 48 1517 48Q1550 48 1614 213Q1615 221 1616 240Q1618 260 1619 270Q1610 286 1587 300Q1565 315 1548 315ZM1996 163Q1917 -5 1862 -5Q1808 -5 1798 8Q1789 21 1789 94Q1789 167 1803 305Q1753 315 1750 346Q1750 362 1771 362Q1792 362 1808 354Q1817 426 1829 500Q1832 519 1848 536Q1864 553 1879 553Q1892 553 1892 512Q1892 493 1878 337Q1905 342 1937 357Q1970 372 1976 372Q1994 372 1994 361Q1995 351 1957 333Q1919 316 1875 307Q1863 161 1863 86Q1863 46 1875 46Q1893 47 1923 88Q1953 129 1982 194Q2012 260 2018 260Q2025 260 2025 252Q2025 224 1996 163ZM2095 -5Q2039 -5 2006 37Q1973 80 1973 134Q1973 243 2019 299Q2065 355 2138 355Q2172 355 2194 336Q2216 318 2216 286Q2216 226 2165 185Q2115 145 2042 143Q2046 104 2068 75Q2091 47 2121 47Q2151 47 2175 61Q2199 75 2219 101Q2261 156 2291 226Q2299 244 2303 252Q2308 260 2313 260Q2319 260 2319 252Q2319 202 2258 102Q2192 -5 2095 -5ZM2042 167Q2101 177 2128 205Q2156 233 2156 278Q2156 323 2127 323Q2092 323 2068 274Q2044 226 2042 167Z" fill="#ffffff" style=""></path></g></g></g></svg>